<?xml version="1.0" encoding="UTF-8" standalone="no"?>
<!-- Created with Inkscape (http://www.inkscape.org/) -->

<svg
   xmlns:dc="http://purl.org/dc/elements/1.1/"
   xmlns:cc="http://creativecommons.org/ns#"
   xmlns:rdf="http://www.w3.org/1999/02/22-rdf-syntax-ns#"
   xmlns:svg="http://www.w3.org/2000/svg"
   xmlns="http://www.w3.org/2000/svg"
   xmlns:sodipodi="http://sodipodi.sourceforge.net/DTD/sodipodi-0.dtd"
   xmlns:inkscape="http://www.inkscape.org/namespaces/inkscape"
   width="297mm"
   height="210mm"
   viewBox="0 0 1052.3622 744.09448"
   id="svg4044"
   version="1.1"
   inkscape:version="0.91 r13725"
   sodipodi:docname="POTLOGOWHITE.svg">
  <defs
     id="defs4046" />
  <sodipodi:namedview
     id="base"
     pagecolor="#ffffff"
     bordercolor="#666666"
     borderopacity="1.0"
     inkscape:pageopacity="0.0"
     inkscape:pageshadow="2"
     inkscape:zoom="0.24748737"
     inkscape:cx="2230.2686"
     inkscape:cy="591.93466"
     inkscape:document-units="px"
     inkscape:current-layer="g4096"
     showgrid="false"
     inkscape:window-width="1920"
     inkscape:window-height="1015"
     inkscape:window-x="1920"
     inkscape:window-y="0"
     inkscape:window-maximized="1" />
  <metadata
     id="metadata4049">
    <rdf:RDF>
      <cc:Work
         rdf:about="">
        <dc:format>image/svg+xml</dc:format>
        <dc:type
           rdf:resource="http://purl.org/dc/dcmitype/StillImage" />
        <dc:title></dc:title>
      </cc:Work>
    </rdf:RDF>
  </metadata>
  <g
     inkscape:label="Layer 1"
     inkscape:groupmode="layer"
     id="layer1"
     transform="translate(0,-308.26772)">
    <g
       id="g4096"
       transform="matrix(2.3423261,0,0,2.3423261,-562.7338,-750.29983)">
      <g
         id="g3839"
         class="com.sun.star.drawing.ClosedBezierShape"
         transform="matrix(0.03543307,0,0,0.03543307,-80.420403,306.25929)">
        <g
           id="id5">
          <rect
             style="fill:none;stroke:none"
             id="rect3842"
             height="952"
             width="952"
             y="8192"
             x="9836"
             class="BoundingBox" />
          <path
             style="fill:#ffffff;stroke:none"
             inkscape:connector-curvature="0"
             id="path3844"
             d="m 10597,9143 -570,0 c -106,0 -191,-85 -191,-191 l 0,-570 c 0,-105 85,-190 191,-190 l 570,0 c 105,0 190,85 190,190 l 0,570 c 0,106 -85,191 -190,191 z" />
        </g>
      </g>
      <g
         id="g3846"
         class="com.sun.star.drawing.ClosedBezierShape"
         transform="matrix(0.03543307,0,0,0.03543307,-80.420403,306.25929)">
        <g
           id="id6">
          <rect
             style="fill:none;stroke:none"
             id="rect3849"
             height="3802"
             width="2852"
             y="7242"
             x="11328"
             class="BoundingBox" />
          <path
             style="fill:#ffffff;stroke:none"
             inkscape:connector-curvature="0"
             id="path3851"
             d="m 13039,9142 -571,0 c -105,0 -190,-85 -190,-190 l 0,-570 c 0,-105 85,-190 190,-190 l 571,0 c 105,0 190,85 190,190 l 0,570 c 0,105 -85,190 -190,190 z m 190,-1900 -951,0 -570,0 c -210,0 -380,170 -380,380 l 0,570 0,950 0,951 0,570 c 0,209 170,380 380,380 l 190,0 c 210,0 380,-171 380,-380 l 0,-380 c 0,-105 85,-190 190,-190 l 761,0 570,0 c 210,0 380,-170 380,-380 l 0,-571 0,-950 0,-570 c 0,-210 -170,-380 -380,-380 l -570,0 z" />
        </g>
      </g>
      <g
         id="g3853"
         class="com.sun.star.drawing.ClosedBezierShape"
         transform="matrix(0.03543307,0,0,0.03543307,-80.420403,306.25929)">
        <g
           id="id7">
          <rect
             style="fill:none;stroke:none"
             id="rect3856"
             height="952"
             width="952"
             y="5750"
             x="15670"
             class="BoundingBox" />
          <path
             style="fill:#ffffff;stroke:none"
             inkscape:connector-curvature="0"
             id="path3858"
             d="m 16430,6701 -570,0 c -105,0 -190,-85 -190,-190 l 0,-571 c 0,-105 85,-190 190,-190 l 570,0 c 104,0 191,85 191,190 l 0,571 c 0,105 -87,190 -191,190 z" />
        </g>
      </g>
      <g
         id="g3860"
         class="com.sun.star.drawing.ClosedBezierShape"
         transform="matrix(0.03543307,0,0,0.03543307,-80.420403,306.25929)">
        <g
           id="id8">
          <rect
             style="fill:none;stroke:none"
             id="rect3863"
             height="2853"
             width="2852"
             y="7241"
             x="14719"
             class="BoundingBox" />
          <path
             style="fill:#ffffff;stroke:none"
             inkscape:connector-curvature="0"
             id="path3865"
             d="m 16431,9142 -570,0 c -105,0 -190,-85 -190,-190 l 0,-570 c 0,-105 85,-190 190,-190 l 570,0 c 104,0 190,85 190,190 l 0,570 c 0,105 -86,190 -190,190 z m 190,-1900 -950,0 -571,0 c -210,0 -380,170 -380,380 l 0,570 0,950 0,570 c 0,210 170,381 380,381 l 571,0 950,0 569,0 c 210,0 380,-171 380,-381 l 0,-570 0,-950 0,-570 c 0,-210 -170,-380 -380,-380 l -569,0 z" />
        </g>
      </g>
      <g
         id="g3867"
         class="com.sun.star.drawing.ClosedBezierShape"
         transform="matrix(0.03543307,0,0,0.03543307,-80.420403,306.25929)">
        <g
           id="id9">
          <rect
             style="fill:none;stroke:none"
             id="rect3870"
             height="2853"
             width="2853"
             y="7241"
             x="17976"
             class="BoundingBox" />
          <path
             style="fill:#ffffff;stroke:none"
             inkscape:connector-curvature="0"
             id="path3872"
             d="m 19878,7242 -950,0 -571,0 c -209,0 -380,170 -380,380 l 0,190 c 0,210 171,380 380,380 l 381,0 c 105,0 190,85 190,190 l 0,760 0,570 c 0,210 170,381 380,381 l 190,0 c 210,0 380,-171 380,-381 l 0,-570 0,-760 c 0,-105 85,-190 190,-190 l 380,0 c 210,0 380,-170 380,-380 l 0,-190 c 0,-210 -170,-380 -380,-380 l -570,0 z" />
        </g>
      </g>
    </g>
  </g>
</svg>
